<svg xmlns="http://www.w3.org/2000/svg" width="434.999" height="42.971" viewBox="0 0 434.999 42.971">
  <g id="Group_12606" data-name="Group 12606" transform="translate(-0.819 -0.5)" opacity="0.75">
    <path id="Exclusion_2" data-name="Exclusion 2" d="M22.863,43.471h0l-.035-.068L.819.508h9.56l15.852,30.9,7.345-14.851h29.73l-.8,1.752-3.327,6.753H38.829L29.793,43.4l-.005.011-6.924.057Zm403.061-8.51a14.882,14.882,0,0,1-4.336-.584,8.727,8.727,0,0,1-3.063-1.6,6.573,6.573,0,0,1-1.818-2.384,7.163,7.163,0,0,1-.6-2.939V26.371h7.432v.359a2.427,2.427,0,0,0,.561,1.67,2.149,2.149,0,0,0,1.644.641,2.341,2.341,0,0,0,1.494-.412,1.39,1.39,0,0,0,.492-1.142c0-1.041-1.583-1.622-3.588-2.357A19.443,19.443,0,0,1,419,22.636a6.23,6.23,0,0,1-2.642-5.221,7.171,7.171,0,0,1,2.288-5.487,8.342,8.342,0,0,1,3.058-1.712,14.662,14.662,0,0,1,4.51-.634,13.688,13.688,0,0,1,4.143.585,8.409,8.409,0,0,1,2.955,1.6,6.628,6.628,0,0,1,1.771,2.385,7.294,7.294,0,0,1,.589,2.939v1.083h-7.438V17.67a2.5,2.5,0,0,0-.483-1.541,1.874,1.874,0,0,0-1.537-.7c-1.108,0-1.77.567-1.77,1.517,0,.544.352,1,1.107,1.433a17.942,17.942,0,0,0,2.667,1.106h0a18.769,18.769,0,0,1,5.037,2.406,6.045,6.045,0,0,1,2.559,5.091c0,3.856-2.6,7.977-9.893,7.977Zm-31.292,0a14.891,14.891,0,0,1-4.337-.584,8.725,8.725,0,0,1-3.063-1.6,6.568,6.568,0,0,1-1.818-2.384,7.168,7.168,0,0,1-.6-2.939V26.371h7.432v.359a2.426,2.426,0,0,0,.561,1.67,2.15,2.15,0,0,0,1.644.641,2.333,2.333,0,0,0,1.491-.412,1.391,1.391,0,0,0,.492-1.142c0-1.041-1.583-1.622-3.587-2.357a19.438,19.438,0,0,1-5.142-2.495,6.231,6.231,0,0,1-2.642-5.221,7.172,7.172,0,0,1,2.288-5.487,8.35,8.35,0,0,1,3.058-1.712,14.661,14.661,0,0,1,4.51-.634,13.688,13.688,0,0,1,4.142.585,8.4,8.4,0,0,1,2.955,1.6,6.621,6.621,0,0,1,1.773,2.383,7.293,7.293,0,0,1,.589,2.939v1.083h-7.435v-.5a2.49,2.49,0,0,0-.483-1.541,1.877,1.877,0,0,0-1.538-.7c-1.107,0-1.767.567-1.767,1.517,0,.544.352,1,1.107,1.433a17.955,17.955,0,0,0,2.667,1.106h0a18.769,18.769,0,0,1,5.037,2.406,6.046,6.046,0,0,1,2.557,5.089c0,3.858-2.6,7.979-9.895,7.979Zm-258.258-.684h-4.118l-1.949-6.14h-8.158l-1.879,6.14h-4l8.013-24.045h3.968l8.127,24.044Zm-10.218-18.99h0l-3,9.638h6.1l-3.1-9.638Zm216.28,18.99h-7.181l-4.623-7.98-1.335-2.49v10.47h-7.656V10.231h7.221l4.875,8.16,1.083,1.95V10.231h7.616V34.276Zm-244.357,0h-3.61L86.093,10.231h4.26l6.065,18.81,5.991-18.81H106.6l-8.52,24.045Zm275.144,0h-17.8V10.231h17.8v6.1h-9.206v3.323h5.848v4.727h-5.848v3.43h9.206v6.463h0Zm-69.442,0h-8.592V16.694h-5.7V10.231h20v6.463h-5.7Zm-26.459,0h-8.556V10.231h8.555Zm-30,0h-8.589V10.231H256.6v6.137h-9.281v4.045h5.453V25.5h-5.453v8.771Zm-28.367,0h-4.009V13.771h-7v-3.54h18.009v3.54h-7Zm-24.145,0h-15.2V10.231h15.2v3.54H183.583v6.281h8.3v3.32h-8.3v7.363h11.228v3.539h0Zm-29.311,0H150.084V10.231h3.972v20.5H165.5v3.539h0ZM67.075,9H37.294L41.467.53l.767-.023L71.331.5Z" fill="#fff"/>
  </g>
</svg>
